<svg width="48" height="48" viewBox="0 0 48 48" fill="none" xmlns="http://www.w3.org/2000/svg">
<path d="M0 16C0 10.3995 0 7.59921 1.08993 5.46009C2.04867 3.57847 3.57847 2.04867 5.46009 1.08993C7.59921 0 10.3995 0 16 0H32C37.6005 0 40.4008 0 42.5399 1.08993C44.4215 2.04867 45.9513 3.57847 46.9101 5.46009C48 7.59921 48 10.3995 48 16V32C48 37.6005 48 40.4008 46.9101 42.5399C45.9513 44.4215 44.4215 45.9513 42.5399 46.9101C40.4008 48 37.6005 48 32 48H16C10.3995 48 7.59921 48 5.46009 46.9101C3.57847 45.9513 2.04867 44.4215 1.08993 42.5399C0 40.4008 0 37.6005 0 32V16Z" fill="#FE9E9F"/>
<path d="M12.8016 40.18C11.8416 40.14 10.9416 39.98 10.1016 39.7C9.2616 39.38 8.4416 38.88 7.6416 38.2C8.8816 35.6 9.8216 32.7 10.4616 29.5C11.1416 26.26 11.4816 22.86 11.4816 19.3C11.4816 18.78 11.4616 18.18 11.4216 17.5C11.3816 16.78 11.3016 16.16 11.1816 15.64C10.7016 15.2 10.2416 14.58 9.8016 13.78C9.3616 12.94 9.0016 12.08 8.7216 11.2C8.4816 10.32 8.3616 9.62 8.3616 9.1C8.8016 8.54 9.6216 8.06 10.8216 7.66C12.0216 7.22 13.1416 7 14.1816 7C14.5816 7.72 14.9416 8.54 15.2616 9.46C15.5816 10.34 15.8616 11.28 16.1016 12.28C17.1416 12.2 18.4816 11.96 20.1216 11.56C21.4016 11.28 22.4216 11.1 23.1816 11.02C23.9816 10.9 24.6616 10.84 25.2216 10.84C27.3816 10.84 29.0816 11.66 30.3216 13.3C31.5616 14.9 32.1816 17.08 32.1816 19.84V29.5C32.1816 31.7 32.4616 33.28 33.0216 34.24C33.6216 35.2 34.5616 35.68 35.8416 35.68C36.2816 35.68 36.7616 35.58 37.2816 35.38C37.8016 35.18 38.3416 34.88 38.9016 34.48C39.5816 34.8 40.1416 35.36 40.5816 36.16C41.0216 36.92 41.2216 37.68 41.1816 38.44C40.5416 39.16 39.7216 39.74 38.7216 40.18C37.7216 40.62 36.6416 40.84 35.4816 40.84H35.4216C29.6216 40.84 26.7216 37.28 26.7216 30.16V20.86C26.7216 19.06 26.5216 17.8 26.1216 17.08C25.7216 16.36 25.0016 16 23.9616 16C23.6016 16 23.2016 16.04 22.7616 16.12C22.3216 16.2 21.5416 16.36 20.4216 16.6C18.8616 16.92 17.6416 17.14 16.7616 17.26C16.8016 17.98 16.8216 18.7 16.8216 19.42C16.8216 22.94 16.4816 26.56 15.8016 30.28C15.1216 33.96 14.1216 37.26 12.8016 40.18Z" fill="white"/>
</svg>
